<?xml version="1.0" encoding="UTF-8" standalone="no"?>
<!-- Created with Inkscape (http://www.inkscape.org/) -->

<svg
   width="1080"
   height="1920"
   viewBox="0 0 1080 1920"
   version="1.1"
   id="svg5"
   inkscape:version="1.1.1 (50ffc5b540, 2022-01-11)"
   sodipodi:docname="gestio.svg"
   xmlns:inkscape="http://www.inkscape.org/namespaces/inkscape"
   xmlns:sodipodi="http://sodipodi.sourceforge.net/DTD/sodipodi-0.dtd"
   xmlns="http://www.w3.org/2000/svg"
   xmlns:svg="http://www.w3.org/2000/svg">
  <sodipodi:namedview
     id="namedview7"
     pagecolor="#ffffff"
     bordercolor="#666666"
     borderopacity="1.0"
     inkscape:pageshadow="2"
     inkscape:pageopacity="0.0"
     inkscape:pagecheckerboard="0"
     inkscape:document-units="px"
     showgrid="false"
     inkscape:zoom="0.23777258"
     inkscape:cx="1276.4298"
     inkscape:cy="773.84871"
     inkscape:window-width="1366"
     inkscape:window-height="746"
     inkscape:window-x="0"
     inkscape:window-y="1"
     inkscape:window-maximized="1"
     inkscape:current-layer="layer1" />
  <defs
     id="defs2" />
  <g
     inkscape:label="Layer 1"
     inkscape:groupmode="layer"
     id="layer1">
    <ellipse
       style="fill:#ff6600"
       id="path31"
       cx="574.1601"
       cy="886.44702"
       rx="345.36911"
       ry="379.65707" />
    <path
       style="fill:#ff6600"
       id="path165"
       d="m 398.01114,737.18465 c -11.60599,-9.50754 -22.56191,-19.91438 -32.48441,-31.1752 -7.96712,-9.82176 -12.6254,-21.73444 -17.05466,-33.44524 -2.17364,-6.10176 -4.06068,-12.33896 -4.96305,-18.7654 0,0 -52.55824,27.99281 -52.55824,27.99281 v 0 c 1.48035,6.63441 3.71946,13.05366 6.24715,19.35901 4.95681,12.21719 9.82742,24.85974 18.16177,35.22288 10.27871,11.30072 21.90718,21.24476 32.54058,32.20554 0,0 50.11086,-31.3944 50.11086,-31.3944 z" />
    <path
       style="fill:#2b1100"
       id="path167"
       d="m 307.68046,703.19769 c 17.28396,14.82744 34.2615,29.9626 52.32457,43.85708 18.62251,14.34734 38.36453,27.1026 60.65708,34.79297 12.5402,3.81097 25.56672,5.37047 38.60491,6.10059 2.64152,0.1394 5.2856,0.17813 7.93003,0.18888 0,0 48.06233,-35.06605 48.06233,-35.06605 v 0 c -2.6939,0.1176 -5.38784,0.24842 -8.08481,0.27138 -12.96423,0.006 -25.95647,-0.90488 -38.57014,-4.10315 -22.26008,-6.58202 -41.99495,-18.62125 -60.48188,-32.52901 -17.77307,-13.73517 -34.60609,-28.50451 -50.03824,-44.85578 0,0 -50.40385,31.34309 -50.40385,31.34309 z" />
    <path
       style="fill:#2b1100"
       id="path202"
       d="m 314.01658,715.85673 c 2.42581,17.72089 2.71072,35.64181 3.24099,53.49334 -0.12102,21.82509 1.65984,43.78152 -1.02197,65.49371 -1.80442,14.05927 -8.43461,25.91541 -17.05979,36.84329 -2.73047,3.10152 -5.62689,6.12006 -9.15558,8.32929 -0.97817,0.6124 -4.05475,2.20484 -3.05918,1.62115 47.95129,-28.1132 64.84741,-34.66984 43.79931,-26.2284 -12.68414,2.67112 -25.79481,2.35346 -38.69809,2.37423 -6.91775,-0.0212 -13.83324,-0.2074 -20.74979,-0.31523 -0.62464,-0.0102 -1.24927,-0.0204 -1.87391,-0.0306 0,0 -48.19794,34.97456 -48.19794,34.97456 v 0 c 0.63978,-0.003 1.27957,-0.005 1.91936,-0.008 7.15803,-0.0147 14.31581,-0.0783 21.47361,-0.13267 13.06937,-0.0826 26.17005,-0.0363 39.20807,-1.00384 26.8392,-3.0469 52.50224,-21.86745 69.3351,-42.93543 8.04062,-11.92404 13.75177,-24.73914 14.96557,-39.27501 1.78275,-21.93038 0.27957,-43.98585 0.38449,-65.96619 -0.23002,-18.23201 -0.82367,-36.46211 -2.10447,-54.65326 0,0 -52.40578,27.41928 -52.40578,27.41928 z" />
    <path
       style="fill:#2b1100"
       id="path204"
       d="m 217.59538,895.54277 c 11.12652,8.76031 23.37901,15.93925 35.31929,23.50995 11.98557,7.11491 23.06176,15.49634 33.92682,24.18667 9.16138,8.41755 19.61132,16.31039 25.52143,27.51536 3.12493,9.05661 10.30357,15.11669 17.18741,21.36659 16.87896,13.75436 33.60354,27.68136 49.94272,42.07396 10.3809,9.5228 20.72731,19.1311 30.0731,29.6873 5.24062,6.4145 10.73811,12.6098 16.29555,18.7516 10.67302,11.9416 20.81739,24.3387 30.8347,36.8309 4.1307,5.8281 9.28581,11.0141 12.91069,17.1965 0.18961,0.441 0.37922,0.882 0.56883,1.3229 0,0 51.82879,-29.39 51.82879,-29.39 v 0 c -0.31216,-0.6082 -0.62432,-1.2165 -0.93648,-1.8247 -4.00456,-6.3229 -9.61192,-11.486 -14.15911,-17.4027 -10.32134,-12.2815 -20.79237,-24.4398 -30.76872,-37.0077 -5.2295,-6.4779 -10.51488,-12.9251 -16.14593,-19.0596 -9.85806,-10.5178 -20.75131,-19.9816 -31.48057,-29.5898 -16.30487,-14.21783 -33.19337,-27.76687 -49.13368,-42.40154 -6.34561,-5.95136 -12.61343,-11.72263 -15.75532,-20.0451 -6.77794,-11.64826 -17.81094,-19.72423 -27.56403,-28.75359 -10.54333,-9.41711 -21.6482,-18.17977 -34.01252,-25.12493 -11.69738,-7.18836 -23.82078,-13.99377 -34.09126,-23.19664 0,0 -50.36171,31.35457 -50.36171,31.35457 z" />
    <path
       style="fill:#2b1100"
       id="path206"
       d="m 523.50819,1085.6504 c -0.32305,-11.8297 -0.31497,-23.6695 -0.35243,-35.504 -0.0408,-16.1227 -1.61045,-32.1853 -2.6925,-48.2588 -0.63771,-12.24413 -4.91742,-23.58756 -9.60383,-34.76565 -2.84414,-7.48001 -7.00152,-14.32811 -10.43742,-21.52417 -1.22419,-2.15994 -0.96402,-4.67022 -1.87794,-6.90102 -1.04073,-1.64924 -0.48224,-0.90149 -1.64795,-2.26353 0,0 -50.82517,31.50216 -50.82517,31.50216 v 0 c 0.0564,-0.093 0.50199,0.0969 0.16915,-0.2789 0.48698,2.59054 1.26862,5.09821 2.53409,7.42714 3.75877,6.8362 8.02683,13.40984 10.88687,20.71096 4.36979,10.68221 8.13943,21.49901 8.79723,33.14161 1.59933,15.8698 3.13822,31.8045 2.55939,47.7759 -0.0377,11.9542 -0.032,23.9135 -0.35244,35.8632 0,0 52.84295,-26.9249 52.84295,-26.9249 z" />
    <path
       style="fill:#2b1100"
       id="path208"
       d="m 381.56345,943.00031 c 17.79828,1.28586 35.61379,2.19919 53.44403,2.8952 17.17469,0.56334 34.35782,0.56748 51.53919,0.64821 12.01806,0.007 24.03638,0.0915 36.05326,0.26114 3.94306,0.0452 7.88584,0.11223 11.82903,0.14565 0,0 48.28681,-35.08505 48.28681,-35.08505 v 0 c -4.0874,0.0367 -8.17432,0.11073 -12.26152,0.16399 -12.261,0.18992 -24.52371,0.30239 -36.78624,0.28989 -17.18795,0.0266 -34.37843,-0.0333 -51.56274,-0.40931 -17.45942,-0.45348 -34.95567,-1.04651 -52.29993,-3.22585 0,0 -48.24189,34.31613 -48.24189,34.31613 z" />
    <path
       style="fill:#2b1100"
       id="path210"
       d="m 503.35346,899.10222 c 12.17173,-4.13737 24.25906,-8.50271 36.29904,-13.00673 6.20548,-2.42628 12.64202,-4.12218 19.16576,-5.42137 3.71906,-0.64406 7.48084,-0.95204 11.24541,-1.15926 0,0 48.05962,-35.16754 48.05962,-35.16754 v 0 c -3.96665,0.0553 -7.93048,0.24857 -11.87129,0.72764 -6.89357,0.79701 -13.69004,2.38374 -20.22853,4.72105 -11.94478,4.48254 -23.75222,9.36847 -35.99752,13.00839 0,0 -46.67249,36.29782 -46.67249,36.29782 z" />
    <path
       style="fill:#2b1100"
       id="path212"
       d="m 629.93925,840.99982 c -0.57164,-7.83187 0.40248,-15.7215 -0.3609,-23.52939 -2.94207,-11.00361 -14.59369,-15.93186 -23.88291,-20.7379 -10.62159,-4.94515 -21.09237,-10.17782 -31.53839,-15.47648 -2.68302,-1.37731 -5.46253,-2.53282 -8.31789,-3.49403 0,0 -49.01549,33.95621 -49.01549,33.95621 v 0 c 2.77017,0.29546 5.41652,1.07009 7.97543,2.18599 10.80529,4.68277 21.29514,10.09508 32.08147,14.82804 7.04165,3.70198 17.97797,7.53438 20.0529,16.09589 0.4615,7.69329 0.28008,15.42089 0.11493,23.1209 0,0 52.89085,-26.94923 52.89085,-26.94923 z" />
    <path
       style="fill:#2b1100"
       id="path214"
       d="m 506.93699,809.55713 c -4.65096,9.46398 -8.71709,19.17877 -11.33033,29.40456 -2.25738,9.61977 -2.30208,19.5181 -2.43063,29.33952 -0.0847,8.62428 -0.0965,17.24924 -0.13845,25.8739 -0.76797,13.03251 12.23197,13.95719 22.15781,15.26767 18.9815,1.53529 38.04277,1.60651 57.07228,1.35775 10.39847,-0.24126 20.79296,-0.6193 31.19075,-0.89174 9.32419,-0.19316 18.65088,-0.20678 27.97671,-0.19632 6.3779,0.0112 12.75552,0.0774 19.13298,0.14772 1.59732,0.0194 3.19466,0.0362 4.79202,0.0516 0,0 48.26286,-35.06243 48.26286,-35.06243 v 0 c -1.64201,0.0143 -3.28401,0.0299 -4.926,0.0473 -6.50995,0.0625 -13.02002,0.11885 -19.53029,0.13287 -9.34662,0.0204 -18.69362,0.006 -28.03986,0.10144 -10.59884,0.14286 -21.18387,0.69452 -31.76727,1.2643 -18.85705,0.74729 -37.75114,0.87311 -56.57804,-0.66787 -1.01384,-0.10726 -15.89655,-1.53608 -16.7137,-3.16186 -0.27866,-0.5544 -0.26871,-5.15821 -0.271,-5.30061 -0.11411,-8.53017 -0.23517,-17.06101 -0.1082,-25.5919 0.24331,-9.40733 0.61269,-18.88746 3.11963,-28.01841 3.02562,-9.92429 7.10424,-19.45003 12.14672,-28.52726 0,0 -54.01799,24.42974 -54.01799,24.42974 z" />
    <path
       style="fill:#2b1100"
       id="path226"
       d="m 801.09847,803.64143 c -6.01353,-9.82488 -11.76038,-19.79966 -17.46432,-29.80582 -4.82971,-8.6398 -9.41782,-17.41905 -14.43748,-25.95118 -3.21277,-5.34017 -6.49512,-10.63582 -9.83601,-15.89664 -2.37197,-3.67582 -5.02707,-7.19422 -6.33453,-11.41381 0,0 -52.14283,28.88601 -52.14283,28.88601 v 0 c 1.79454,4.47865 4.48431,8.41934 7.23373,12.36352 3.26579,5.27295 6.56443,10.52585 9.89784,15.75563 5.21187,8.34349 9.97191,16.96007 14.78923,25.53454 5.57957,10.00221 11.57653,19.77621 16.83285,29.95231 0,0 51.46152,-29.42456 51.46152,-29.42456 z" />
    <path
       style="fill:#2b1100"
       id="path228"
       d="m 742.21664,713.70711 c -30.44572,14.20679 -53.64259,28.77727 -75.76339,51.35519 -4.14263,4.74661 -7.84877,9.90646 -11.04927,15.33372 -2.45242,5.11189 -4.30742,10.52784 -6.20628,15.88764 -2.62791,7.45189 -5.35316,14.91129 -7.25572,22.58976 -0.58096,3.68883 -1.50542,7.31902 -2.06928,11.0078 -0.33644,2.80882 -0.68758,5.6159 -0.88931,8.43847 -0.16243,2.44854 -0.10602,4.9035 -0.10263,7.35537 0,0 53.18246,-27.05926 53.18246,-27.05926 v 0 c 0.0302,-2.31394 0.10393,-4.62859 0.33278,-6.93266 0.27299,-2.65128 0.57997,-5.30397 1.06399,-7.92595 0.71854,-3.48954 1.16074,-7.0301 2.04199,-10.48598 2.00888,-7.40975 4.42317,-14.71021 7.26427,-21.84383 2.13035,-5.10727 3.91788,-10.41558 7.06118,-15.01793 3.31217,-4.93518 6.83084,-9.75695 11.11764,-13.90484 17.6326,-17.11284 61.22816,-45.729 -24.95255,8.41589 0,0 46.22412,-37.21339 46.22412,-37.21339 z" />
    <path
       style="fill:#2b1100"
       id="path230"
       d="m 643.466,855.94581 c 9.735,6.29646 19.9358,11.70226 30.71882,15.94756 12.21232,4.60554 25.04547,7.17014 37.79792,9.76412 11.76478,2.3693 23.56027,4.62767 35.50053,5.88697 9.65031,0.90007 19.34451,1.14624 29.02937,1.36291 4.32209,0.0943 8.64507,0.14957 12.9681,0.17623 0,0 48.24489,-35.08299 48.24489,-35.08299 v 0 c -4.43891,0.0636 -8.87752,0.14962 -13.31689,0.17742 -9.6791,0.0309 -19.36584,-0.0527 -29.0248,-0.74476 -11.89289,-1.00886 -23.66792,-2.87143 -35.37531,-5.19307 -12.45838,-2.62231 -25.05032,-4.8864 -37.09954,-9.10304 -10.44638,-3.85117 -20.58744,-8.53402 -29.59596,-15.17099 0,0 -49.84713,31.97964 -49.84713,31.97964 z" />
    <path
       style="fill:#2b1100"
       id="path244"
       d="m 776.86515,902.04742 c -11.87484,8.71189 -23.47244,17.73107 -33.82448,28.22172 -15.21006,16.3443 -28.65712,34.26884 -41.89676,52.22231 -10.18295,13.92551 -19.50284,28.45135 -28.69527,43.04065 -6.51807,10.2266 -13.44009,20.1856 -20.11103,30.3128 -5.94475,8.8343 -12.28866,17.3833 -18.60621,25.9512 -3.40728,4.2504 -5.91329,9.031 -7.45503,14.2376 0,0 54.00513,-25.2117 54.00513,-25.2117 v 0 c 1.96053,-4.4885 4.67454,-8.538 7.59811,-12.4596 6.19652,-8.6688 12.50005,-17.2657 18.39925,-26.1424 6.62327,-9.9757 13.13948,-20.0262 19.49155,-30.1767 9.1075,-14.40346 18.44116,-28.67532 28.45523,-42.4693 13.24578,-17.8618 26.52437,-35.86895 42.51176,-51.41734 11.07597,-10.07314 22.81465,-19.34427 35.14888,-27.84231 0,0 -55.02113,21.73307 -55.02113,21.73307 z" />
    <path
       style="fill:#2b1100"
       id="path246"
       d="m 665.88735,1069.6399 c -11.75923,-11.2639 -20.61403,-25.1619 -29.43171,-38.7498 -3.59279,-6.179 -8.47806,-11.77 -10.90037,-18.5727 -1.21983,-3.3642 -2.88197,-6.4973 -3.9903,-9.9057 -1.41909,-5.11093 -2.14972,-10.36442 -2.55538,-15.64222 -0.1247,-2.49555 -0.0788,-1.28448 -0.14274,-3.63301 0,0 -52.93581,27.34233 -52.93581,27.34233 v 0 c 0.2036,2.4758 0.0869,1.1971 0.35493,3.8358 0.71052,5.6167 1.70432,11.2039 3.18136,16.6735 1.09777,3.592 2.7012,6.9399 4.12776,10.409 3.16113,6.948 8.20759,12.7709 12.4605,19.0549 9.5112,13.6431 18.81819,27.4993 29.45583,40.2978 0,0 50.37593,-31.1099 50.37593,-31.1099 z" />
    <path
       style="fill:#2b1100"
       id="path248"
       d="m 572.68853,1005.4133 c 14.82537,-5.2812 29.96932,-9.67269 45.22862,-13.51094 13.9158,-3.35537 27.81331,-6.72109 41.89008,-9.33586 16.29512,-2.90798 32.8557,-3.61909 49.35706,-4.37617 15.82527,-0.46175 31.52791,-2.68089 47.14029,-5.17328 12.33495,-2.07799 24.4561,-5.19788 36.63266,-8.02201 9.3267,-1.89534 18.5266,-4.30301 27.71293,-6.77111 3.88008,-1.22443 7.90551,-1.72874 11.89194,-2.44463 2.93929,-0.75664 5.82742,-1.6682 8.82645,-2.15982 0.45444,-0.0192 0.90888,-0.0385 1.36332,-0.0578 0,0 47.72715,-35.8255 47.72715,-35.8255 v 0 c -0.3906,0.11354 -0.7812,0.22707 -1.1718,0.34061 -3.21059,0.12953 -6.40402,0.39491 -9.46374,1.46738 -3.95893,1.39358 -8.08409,1.59415 -12.14328,2.59514 -9.34383,2.48979 -18.53681,5.56816 -28.06522,7.33582 -12.24274,2.67683 -24.35826,5.8877 -36.63137,8.41985 -15.4699,2.75386 -31.06211,5.20466 -46.7859,5.79671 -16.66798,0.74744 -33.39796,1.37145 -49.9174,3.85292 -14.07366,2.35717 -27.99767,5.30174 -41.83612,8.78302 -15.17139,3.75936 -30.12933,8.30474 -45.11756,12.72787 0,0 -46.63811,36.3578 -46.63811,36.3578 z" />
    <path
       style="fill:#2b1100"
       id="path250"
       d="m 828.54907,757.75554 c -3.21989,11.65704 -6.15867,23.3916 -9.04949,35.13421 -1.98772,8.95821 -4.27483,17.84135 -6.15132,26.82381 -1.81527,7.34495 -2.79098,14.85444 -4.29084,22.26262 -1.56224,8.39142 -3.88844,16.60103 -5.72784,24.93038 -0.93159,6.08101 -2.20629,12.04621 -3.59579,18.03534 -1.49009,6.29358 -1.99973,12.76135 -3.47193,19.05245 -0.9185,5.45006 -2.45428,10.75028 -3.86029,16.08602 -1.10629,6.49568 -2.37839,12.90542 -4.25688,19.22645 -3.87115,11.76435 -8.34487,23.33186 -12.86213,34.86268 -5.09036,11.32438 -9.89385,22.76042 -14.62662,34.238 -4.49329,10.5659 -7.94485,21.5354 -11.55925,32.423 -3.05514,7.7088 -4.2144,15.9379 -6.40008,23.8757 -3.42912,6.8769 -8.45654,12.7874 -13.26619,18.7262 -3.60504,4.6045 -7.77219,8.5026 -12.70358,11.6201 -19.57617,9.9976 -1.4247,0.8025 43.26696,-25.3011 1.37022,-0.8003 -2.79377,1.5059 -4.20209,2.2371 -4.23556,2.1992 -8.53472,4.2777 -12.80113,6.416 -21.68769,11.3918 -3.05427,1.5454 -57.04519,32.7411 -0.82311,0.4756 -3.27672,1.9293 -2.45344,1.454 16.29078,-9.4055 65.22713,-37.5094 48.85609,-28.2444 -51.48877,29.1395 -38.16165,16.1008 -53.52965,31.3434 -1.55533,4.6473 -1.48727,6.5661 1.25976,10.6156 6.08975,4.9897 14.28757,6.5242 21.73141,8.5333 8.66077,2.4958 17.37357,4.7016 26.29947,5.9834 6.7571,0.8115 13.56271,1.1176 20.36163,1.3111 3.9273,0.1241 7.85613,0.039 11.78379,0 5.96234,-0.078 11.92562,-0.081 17.88823,-0.036 3.3983,0.039 6.79676,0.058 10.19521,0.079 2.28834,0.023 4.57664,0.01 6.86499,0 2.69439,0 5.38875,-0.013 8.08315,-0.01 1.6799,0.01 0.85155,-0.034 2.48531,0.1149 0,0 48.044,-35.4646 48.044,-35.4646 v 0 c -1.38696,0.3933 -0.63684,0.2752 -2.26074,0.2805 -2.68856,0.01 -5.37706,0 -8.0656,-0.01 -2.29166,-0.01 -4.58326,-0.019 -6.87492,0 -3.47283,0.021 -6.94567,0.04 -10.41834,0.08 -5.95295,0.048 -11.90643,0.051 -17.85936,0 -3.91147,-0.022 -7.82273,-0.046 -11.73361,0.054 -6.77206,0.07 -13.55247,0.017 -20.30665,-0.5353 -8.81545,-0.865 -17.41989,-2.6693 -25.89383,-5.2669 -6.50553,-1.6999 -13.05574,-3.3679 -19.27642,-5.9597 0.52507,2.147 0.0928,-1.448 3.17938,-1.6904 16.8677,-7.786 -64.29295,37.2649 -48.22549,27.9387 167.55006,-97.2526 -23.9542,14.3806 10.88329,-6.3892 25.23136,-13.5339 52.22258,-24.1786 74.91545,-42.1751 4.50409,-3.8468 8.39031,-8.2687 11.92834,-13.0206 4.94012,-6.5061 10.20748,-13.0627 12.36173,-21.0991 1.65052,-7.8473 3.42027,-15.6647 6.14787,-23.2277 3.51524,-10.7717 7.23441,-21.49003 11.55992,-31.96631 4.70584,-11.5796 10.04102,-22.87525 14.73067,-34.45959 4.30745,-11.80126 8.91393,-23.49597 12.89393,-35.41362 1.78256,-6.42385 2.9053,-12.94983 4.43077,-19.43034 1.47242,-5.44109 2.76795,-10.9142 3.76817,-16.46392 1.04975,-6.2782 1.79465,-12.61664 3.42447,-18.78576 1.46133,-5.97971 2.32934,-12.03953 3.46365,-18.08515 1.83717,-8.37898 4.07459,-16.66755 5.73814,-25.08604 1.39757,-7.35138 2.353,-14.78471 4.14887,-22.05976 2.00317,-8.85905 4.16339,-17.68239 5.97193,-26.58548 2.79803,-11.77566 5.7097,-23.55956 9.67979,-35.00358 0,0 -53.57768,25.28289 -53.57768,25.28289 z" />
    <circle
       id="path285"
       style="fill:#ff0000;stroke:#000000"
       cx="905.16803"
       cy="1262.0242"
       r="1.9960558" />
    <circle
       id="path287"
       style="fill:#d40000;stroke:#000000"
       cx="905.16803"
       cy="1262.0242"
       r="1.9960558" />
    <path
       style="fill:#d40000"
       id="path322"
       d="m 869.37958,1014.0651 c -2.11394,10.6867 -6.09835,20.8343 -10.64934,30.6849 -5.6281,11.5734 -12.28266,22.5964 -18.36959,33.9229 -3.73528,6.8349 -7.4143,13.6919 -10.29997,20.935 -2.88675,7.3501 -5.43617,14.8233 -7.3876,22.4763 -0.83129,5.7885 -2.88081,11.1396 -5.05063,16.5203 -1.66521,4.2003 -2.48254,8.6416 -3.17291,13.0847 -0.6108,3.4876 -0.75303,5.6495 1.10054,8.6858 5.61618,4.4292 13.76367,3.6708 20.62759,3.952 4.29214,0.2832 8.60669,0.054 12.8964,0.2817 3.44405,0.1842 6.83837,0.7953 10.25499,1.2284 2.97675,0.021 5.75466,0.6752 8.60091,1.4661 2.31604,0.6552 4.70128,0.9832 7.09011,1.224 0,0 48.47436,-34.8307 48.47436,-34.8307 v 0 c -2.17818,0 -4.35932,-0.05 -6.52285,-0.3291 -3.08426,-0.578 -5.92924,-2.0505 -9.09018,-2.1044 -3.46209,-0.2187 -6.86585,-0.7485 -10.28957,-1.2623 -4.45967,-0.5347 -8.89626,-0.4428 -13.39274,-0.3754 -3.79091,-0.039 -13.57849,-1.2538 -16.60694,-0.5266 -0.3346,0.08 -0.43967,0.5295 -0.6595,0.7942 1.03542,2.5628 0.45627,-3.3552 1.0679,-4.3579 0.76566,-4.08 1.84616,-8.0753 3.47226,-11.9076 2.05751,-5.5337 3.38315,-11.2144 4.57565,-16.9899 2.1303,-7.4521 4.80261,-14.7179 7.91457,-21.818 3.09694,-6.8281 6.35726,-13.5735 9.94162,-20.1628 6.21304,-11.3976 12.74655,-22.6412 18.29754,-34.3835 4.44303,-10.3107 7.82284,-21.00279 10.55343,-31.89289 0,0 -53.37605,25.68479 -53.37605,25.68479 z" />
    <path
       style="fill:#d40000"
       id="path326"
       d="m 927.97349,1048.3097 c -7.93486,5.6713 -15.0046,12.443 -21.83978,19.3708 -5.94755,5.885 -9.53501,13.4308 -13.04609,20.8922 -2.96376,6.6435 -5.14971,13.6047 -7.23093,20.5654 -2.48838,8.5274 -3.12178,17.3912 -3.51608,26.2152 -0.17247,10.7835 -0.23742,21.5677 -0.30623,32.3522 -0.0676,6.4291 -0.14127,12.858 -0.17167,19.2874 -0.0337,3.8343 -0.0441,7.6687 -0.0749,11.5029 -0.31288,3.7193 1.61292,6.4563 4.57724,8.4715 3.08871,1.3989 6.55573,1.2008 9.87009,1.2141 4.01262,-0.073 8.0258,-10e-5 12.03845,-0.025 24.11693,-5.9069 47.73789,-19.6107 63.88201,-38.7517 5.76307,-7.7134 11.25863,-15.6409 16.07364,-23.9832 3.79915,-8.8548 6.11096,-18.237 8.41145,-27.5659 1.10498,-5.2991 1.90624,-10.672 2.3704,-16.0603 0.51639,-6.7527 0.7128,-13.5264 0.8442,-20.2962 -0.0144,-7.5041 -0.0391,-15.0067 0.0264,-22.5108 0.0299,-4.3613 0.11324,-8.7219 0.17771,-13.0827 0.027,-2.4487 0.01,-4.8973 0.016,-7.3461 0,-2.5974 -0.018,-5.1948 -0.01,-7.7922 -0.014,-2.4586 0.018,-4.9171 0.018,-7.3757 0,-1.4493 0,-0.73 0.01,-2.1578 0,0 -53.21339,27.1135 -53.21339,27.1135 v 0 c 0.004,1.424 0.002,0.7065 0.005,2.1525 4.3e-4,2.4525 0.0317,4.9049 0.018,7.3573 0.008,2.6009 -0.008,5.2017 -0.01,7.8026 0.006,2.4444 -0.0114,4.8888 0.0194,7.3331 0.0711,4.2959 0.16502,8.5914 0.1994,12.8878 0.0712,7.4775 0.0752,14.9545 -0.13041,22.4303 -0.13254,6.6137 -0.29237,13.2414 -1.18013,19.8064 -0.78769,5.1181 -1.20159,10.3011 -2.48251,15.3356 -2.10946,8.9175 -4.39787,17.9417 -9.09231,25.9057 -4.97887,7.9809 -10.12803,15.9448 -16.60609,22.811 -0.98646,0.9268 -1.92861,1.9032 -2.95939,2.7804 -0.84778,0.7216 -3.63686,2.5573 -2.66803,2.0089 87.04129,-49.2646 60.01931,-36.732 43.84423,-24.7503 -3.58851,1.5412 -7.61531,0.7923 -11.42605,0.9612 -2.86531,0.022 -5.75048,-0.054 -8.59894,0.2978 -1.75336,0.9213 -0.65011,0.9615 -0.90551,-2.0363 -0.0321,-3.8094 -0.0453,-7.619 -0.0915,-11.4283 -0.0519,-6.355 -0.16558,-12.709 -0.2449,-19.0638 -0.0684,-10.6849 -0.15998,-21.3834 0.46333,-32.055 0.59035,-8.4488 1.58203,-16.8942 4.28596,-24.9678 2.2073,-6.7092 4.53014,-13.4074 7.62909,-19.7665 3.60065,-7.0754 7.84619,-13.7009 13.79359,-19.0728 6.94201,-6.7829 14.26437,-13.1991 22.42813,-18.4924 0,0 -55.19219,21.7246 -55.19219,21.7246 z" />
    <path
       style="fill:#483737"
       id="path330"
       d="m 924.94166,942.75843 c 0.8728,-8.29335 3.26079,-16.27947 6.21197,-24.03962 1.63443,-4.1649 4.65579,-7.4904 7.3922,-10.94895 2.69246,-2.78433 4.64348,-6.01078 5.60559,-9.75525 1.31335,-2.87831 1.29632,-6.18495 1.49357,-9.29779 0.20273,-3.01458 0.24895,-6.03598 0.27143,-9.05628 0.008,-1.69677 0.005,-3.39357 0.004,-5.09036 0,0 -53.22763,27.13895 -53.22763,27.13895 v 0 c 0.008,1.67073 0.0189,3.34148 0.0127,5.01224 -0.0225,2.84035 -0.0877,5.68432 -0.39968,8.51019 -0.38778,2.77247 -1.07542,5.34713 -2.29779,7.8712 -1.74902,2.92263 -4.06965,5.41559 -6.06972,8.1617 -2.82138,3.86961 -5.26208,7.94363 -6.50112,12.61962 -2.52942,8.20412 -4.3062,16.60709 -5.71074,25.07386 0,0 53.21519,-26.19951 53.21519,-26.19951 z" />
    <text
       xml:space="preserve"
       style="font-style:normal;font-weight:normal;font-size:40px;line-height:1.25;font-family:sans-serif;fill:#000000;fill-opacity:1;stroke:none"
       x="479.60782"
       y="1844.0529"
       id="text5040"><tspan
         sodipodi:role="line"
         id="tspan5038"
         x="479.60782"
         y="1844.0529" /></text>
    <text
       xml:space="preserve"
       style="font-style:normal;font-weight:normal;font-size:40px;line-height:1.25;font-family:sans-serif;fill:#000000;fill-opacity:1;stroke:none"
       x="393.25677"
       y="1824.859"
       id="text19188"><tspan
         sodipodi:role="line"
         id="tspan19186"></tspan></text>
    <text
       xml:space="preserve"
       style="font-style:normal;font-weight:normal;font-size:40px;line-height:1.25;font-family:sans-serif;fill:#000000;fill-opacity:1;stroke:none"
       x="396.17267"
       y="1871.3135"
       id="text21678"><tspan
         sodipodi:role="line"
         id="tspan21676"
         x="396.17267"
         y="1871.3135">Par El Hadji Seybatou Mbengue</tspan></text>
  </g>
</svg>
